<svg width="326" height="85" viewBox="0 0 326 85" fill="none" xmlns="http://www.w3.org/2000/svg">
<rect width="326" height="85" rx="42.5" fill="white"/>
<path d="M229.462 49.2398V37.0132C229.462 36.1524 229.329 35.4146 229.064 34.7997C228.799 34.1849 228.384 33.7018 227.818 33.3505C227.253 32.9991 226.519 32.8235 225.618 32.8235C224.858 32.8235 224.195 32.9552 223.63 33.2187C223.082 33.4822 222.658 33.8599 222.357 34.3518V34.3518C221.838 35.256 221.088 36.17 220.045 36.17H217.389C215.331 36.17 213.578 34.4069 214.537 32.5863V32.5863C215.121 31.4796 215.951 30.5046 217.029 29.6614C218.125 28.8182 219.433 28.1682 220.952 27.7115C222.472 27.2372 224.178 27 226.069 27C228.313 27 230.31 27.3777 232.059 28.1331C233.827 28.8709 235.223 29.9864 236.248 31.4796C237.273 32.9552 237.785 34.8173 237.785 37.0659V49.0026C237.785 50.7242 237.882 52.0769 238.077 53.0606C238.281 53.9914 238.567 54.808 238.936 55.5105C238.963 55.563 238.978 55.6213 238.978 55.6806V55.6806C238.978 55.8781 238.818 56.0382 238.62 56.0382H233.818C231.871 56.0382 230.062 54.904 229.753 52.9816V52.9816C229.559 51.7519 229.462 50.5046 229.462 49.2398ZM228.256 38.6469C229.497 38.6469 230.507 39.6454 230.522 40.8865V40.8865C230.536 42.1484 229.518 43.1792 228.256 43.1792H226.44C225.521 43.1792 224.725 43.2934 224.054 43.5217C223.4 43.7501 222.87 44.0663 222.463 44.4704C222.057 44.8568 221.757 45.3136 221.562 45.8406C221.385 46.35 221.297 46.9122 221.297 47.527C221.297 48.1067 221.438 48.6337 221.721 49.108C222.004 49.5648 222.393 49.9249 222.888 50.1884C223.382 50.4519 223.957 50.5837 224.611 50.5837C225.689 50.5837 226.608 50.3729 227.367 49.9513C228.145 49.5296 228.746 49.0202 229.17 48.4229V48.4229C229.46 48.0029 230.481 47.8732 230.737 48.3144L231.552 49.7188C231.704 49.9804 231.722 50.3 231.589 50.572C231.314 51.139 230.993 51.7226 230.628 52.3228C230.168 53.0606 229.585 53.7545 228.878 54.4045C228.172 55.0369 227.314 55.5551 226.307 55.9592C225.317 56.3632 224.125 56.5652 222.729 56.5652C220.926 56.5652 219.291 56.2051 217.824 55.4848C216.358 54.747 215.183 53.7369 214.299 52.4545C213.433 51.1722 213 49.6965 213 48.0277C213 46.5345 213.274 45.2082 213.822 44.0487C214.37 42.8893 215.191 41.9056 216.287 41.0975C217.4 40.2894 218.796 39.6834 220.475 39.2793C222.154 38.8577 224.116 38.6469 226.36 38.6469H228.256Z" fill="#27AE60"/>
<path d="M251.516 33.0079V62.8647C251.516 65.1486 249.665 67 247.381 67V67C245.097 67 243.246 65.1486 243.246 62.8647V31.5793C243.246 29.3413 245.06 27.527 247.298 27.527V27.527C249.378 27.527 251.12 29.101 251.33 31.1699L251.516 33.0079ZM269.41 41.4664V42.0198C269.41 44.0927 269.171 46.0162 268.694 47.7905C268.217 49.5472 267.501 51.0843 266.547 52.4018C265.61 53.7194 264.452 54.747 263.074 55.4848C261.696 56.2051 260.096 56.5652 258.276 56.5652C256.544 56.5652 255.042 56.2051 253.77 55.4848C252.515 54.747 251.455 53.7282 250.589 52.4282C249.74 51.1107 249.051 49.6087 248.521 47.9223C248.066 46.4098 247.702 44.8075 247.428 43.1151C247.358 42.6846 247.328 42.2488 247.328 41.8127V41.3874C247.611 39.332 248.017 37.426 248.548 35.6693C249.078 33.9126 249.767 32.3931 250.615 31.1107C251.463 29.8107 252.515 28.8006 253.77 28.0804C255.024 27.3601 256.518 27 258.25 27C260.052 27 261.651 27.3426 263.048 28.0277C264.444 28.7128 265.61 29.6965 266.547 30.9789C267.501 32.2437 268.217 33.7633 268.694 35.5375C269.171 37.3118 269.41 39.2881 269.41 41.4664ZM261.112 42.0198V41.4664C261.112 40.307 261.024 39.2442 260.847 38.278C260.671 37.2942 260.388 36.4422 259.999 35.722C259.61 34.9842 259.098 34.4133 258.462 34.0092C257.825 33.6052 257.048 33.4032 256.129 33.4032C255.139 33.4032 254.3 33.5613 253.611 33.8775C252.921 34.1937 252.365 34.6592 251.941 35.274C251.516 35.8713 251.207 36.6091 251.013 37.4875C250.836 38.3658 250.739 39.3671 250.721 40.4914V43.39C250.739 44.7075 250.924 45.8845 251.278 46.9209C251.649 47.9398 252.223 48.7391 253.001 49.3188C253.796 49.881 254.856 50.1621 256.182 50.1621C257.119 50.1621 257.896 49.96 258.515 49.556C259.151 49.1344 259.654 48.5459 260.026 47.7905C260.414 47.0351 260.688 46.1656 260.847 45.1818C261.024 44.1981 261.112 43.144 261.112 42.0198Z" fill="#27AE60"/>
<path d="M282.107 33.0079V62.8647C282.107 65.1486 280.256 67 277.972 67V67C275.688 67 273.836 65.1486 273.836 62.8647V31.5793C273.836 29.3413 275.651 27.527 277.889 27.527V27.527C279.968 27.527 281.71 29.101 281.92 31.1699L282.107 33.0079ZM300 41.4664V42.0198C300 44.0927 299.761 46.0162 299.284 47.7905C298.807 49.5472 298.091 51.0843 297.137 52.4018C296.2 53.7194 295.043 54.747 293.665 55.4848C292.286 56.2051 290.687 56.5652 288.867 56.5652C287.135 56.5652 285.633 56.2051 284.36 55.4848C283.105 54.747 282.045 53.7282 281.179 52.4282C280.331 51.1107 279.642 49.6087 279.112 47.9223C278.657 46.4098 278.292 44.8075 278.018 43.1151C277.949 42.6846 277.919 42.2488 277.919 41.8127V41.3874C278.201 39.332 278.608 37.426 279.138 35.6693C279.668 33.9126 280.357 32.3931 281.206 31.1107C282.054 29.8107 283.105 28.8006 284.36 28.0804C285.615 27.3601 287.108 27 288.84 27C290.643 27 292.242 27.3426 293.638 28.0277C295.034 28.7128 296.2 29.6965 297.137 30.9789C298.091 32.2437 298.807 33.7633 299.284 35.5375C299.761 37.3118 300 39.2881 300 41.4664ZM291.703 42.0198V41.4664C291.703 40.307 291.615 39.2442 291.438 38.278C291.261 37.2942 290.978 36.4422 290.59 35.722C290.201 34.9842 289.688 34.4133 289.052 34.0092C288.416 33.6052 287.638 33.4032 286.719 33.4032C285.73 33.4032 284.89 33.5613 284.201 33.8775C283.512 34.1937 282.955 34.6592 282.531 35.274C282.107 35.8713 281.798 36.6091 281.603 37.4875C281.427 38.3658 281.329 39.3671 281.312 40.4914V43.39C281.329 44.7075 281.515 45.8845 281.868 46.9209C282.239 47.9398 282.814 48.7391 283.591 49.3188C284.387 49.881 285.447 50.1621 286.772 50.1621C287.709 50.1621 288.487 49.96 289.105 49.556C289.741 49.1344 290.245 48.5459 290.616 47.7905C291.005 47.0351 291.279 46.1656 291.438 45.1818C291.615 44.1981 291.703 43.144 291.703 42.0198Z" fill="#27AE60"/>
<path d="M194.162 55.9969C194.162 54.4293 194.715 53.1152 195.822 52.0548C196.952 50.9943 198.415 50.4641 200.214 50.4641C202.035 50.4641 203.487 50.9943 204.571 52.0548C205.677 53.1152 206.231 54.4293 206.231 55.9969C206.231 57.5415 205.677 58.844 204.571 59.9044C203.487 60.9649 202.035 61.4951 200.214 61.4951C198.415 61.4951 196.952 60.9649 195.822 59.9044C194.715 58.844 194.162 57.5415 194.162 55.9969Z" fill="#43CD66"/>
<path d="M44 14C44 11.7909 45.7909 10 48 10C50.2091 10 52 11.7909 52 14V17H44V14Z" fill="#43CD66"/>
<path d="M51 70C51 72.2091 49.2091 74 47 74C44.7909 74 43 72.2091 43 70V67H51V70Z" fill="#43CD66"/>
<path d="M55.1509 55.1155C56.5308 52.6228 58.6204 50.2398 61.4696 50.2398H61.684C64.8989 50.2398 67.5606 53.0032 66.4492 56.0198C66.0098 57.2126 65.4481 58.3404 64.7641 59.4034C63.0812 62.0315 60.7413 64.0948 57.7444 65.5932C54.7474 67.0686 51.1857 67.8064 47.0592 67.8064C43.7626 67.8064 40.8117 67.2415 38.2067 66.1119C35.6017 64.9823 33.3886 63.3686 31.5674 61.2707C29.7692 59.1498 28.386 56.6025 27.4178 53.6286C26.4726 50.6317 26 47.2544 26 43.4967V40.4191C26 36.6614 26.4956 33.2841 27.4869 30.2871C28.4782 27.2902 29.896 24.7313 31.7403 22.6104C33.5845 20.4895 35.7976 18.8642 38.3796 17.7346C40.9616 16.605 43.8432 16.0402 47.0246 16.0402C51.3125 16.0402 54.9319 16.8125 57.8827 18.3571C60.8335 19.9016 63.1158 22.0225 64.7295 24.7198C65.3773 25.7873 65.9222 26.9143 66.3642 28.101C67.4902 31.1243 64.8824 33.9526 61.6562 33.9526H61.5315C58.6762 33.9526 56.5651 31.579 55.3238 29.0077C54.6783 27.6475 53.687 26.6217 52.3499 25.9301C51.0128 25.2385 49.2377 24.8927 47.0246 24.8927C45.4109 24.8927 43.9931 25.1924 42.7713 25.7918C41.5725 26.3911 40.5697 27.3248 39.7628 28.5927C38.979 29.8607 38.3911 31.4744 37.9992 33.4339C37.6073 35.3704 37.4114 37.6757 37.4114 40.3499V43.4967C37.4114 46.1478 37.5843 48.4416 37.9301 50.3781C38.2759 52.3145 38.8291 53.9168 39.5899 55.1847C40.3737 56.4526 41.3765 57.3978 42.5984 58.0202C43.8202 58.6427 45.3071 58.9539 47.0592 58.9539C49.0648 58.9539 50.7362 58.6427 52.0733 58.0202C53.4103 57.3747 54.4362 56.4065 55.1509 55.1155Z" fill="#43CD66"/>
<path d="M71.7492 48.7874V48.0612C71.7492 45.3179 72.1411 42.7935 72.9249 40.4882C73.7088 38.1598 74.8614 36.1427 76.3829 34.4367C77.9045 32.7308 79.7718 31.4052 81.9849 30.46C84.198 29.4918 86.7339 29.0077 89.5925 29.0077C92.4972 29.0077 95.0561 29.4918 97.2692 30.46C99.5054 31.4052 101.384 32.7308 102.906 34.4367C104.427 36.1427 105.58 38.1598 106.364 40.4882C107.148 42.7935 107.539 45.3179 107.539 48.0612V48.7874C107.539 51.5077 107.148 54.032 106.364 56.3604C105.58 58.6657 104.427 60.6829 102.906 62.4119C101.384 64.1178 99.5169 65.4434 97.3038 66.3886C95.0907 67.3338 92.5433 67.8064 89.6616 67.8064C86.803 67.8064 84.2556 67.3338 82.0195 66.3886C79.7833 65.4434 77.9045 64.1178 76.3829 62.4119C74.8614 60.6829 73.7088 58.6657 72.9249 56.3604C72.1411 54.032 71.7492 51.5077 71.7492 48.7874ZM82.5727 48.0612V48.7874C82.5727 50.2628 82.688 51.646 82.9185 52.937C83.1721 54.228 83.5756 55.3576 84.1288 56.3258C84.6821 57.2941 85.4083 58.0548 86.3074 58.6081C87.2295 59.1383 88.3476 59.4034 89.6616 59.4034C90.9757 59.4034 92.0822 59.1383 92.9813 58.6081C93.8804 58.0548 94.6066 57.2941 95.1598 56.3258C95.7131 55.3576 96.105 54.228 96.3355 52.937C96.5891 51.646 96.7159 50.2628 96.7159 48.7874V48.0612C96.7159 46.6089 96.5891 45.2487 96.3355 43.9808C96.105 42.6898 95.7131 41.5487 95.1598 40.5574C94.6066 39.5661 93.8688 38.7938 92.9467 38.2405C92.0476 37.6872 90.9296 37.4106 89.5925 37.4106C88.3015 37.4106 87.2065 37.6872 86.3074 38.2405C85.4083 38.7938 84.6821 39.5661 84.1288 40.5574C83.5756 41.5487 83.1721 42.6898 82.9185 43.9808C82.688 45.2487 82.5727 46.6089 82.5727 48.0612Z" fill="#43CD66"/>
<path d="M119.176 14C122.164 14 124.587 16.4229 124.587 19.4118V61.703C124.587 64.6918 122.164 67.1147 119.176 67.1147C116.187 67.1147 113.764 64.6918 113.764 61.703V19.4118C113.764 16.4229 116.187 14 119.176 14Z" fill="#43CD66"/>
<path d="M143.191 37.5489V61.7203C143.191 64.6996 140.776 67.1147 137.797 67.1147C134.818 67.1147 132.402 64.6996 132.402 61.7203V34.9769C132.402 32.0621 134.765 29.6993 137.68 29.6993C140.424 29.6993 142.71 31.8022 142.939 34.5367L143.191 37.5489ZM141.854 45.7622C141.802 46.5013 141.217 47.1079 140.477 47.1267C139.709 47.1461 139.073 46.5287 139.107 45.7615C139.199 43.6722 139.5 41.73 140.01 39.9349C140.655 37.7218 141.589 35.7969 142.811 34.1601C144.033 32.5233 145.543 31.2554 147.341 30.3563C149.162 29.4572 151.26 29.0077 153.634 29.0077C155.294 29.0077 156.804 29.2613 158.164 29.7684C159.525 30.2526 160.689 31.0248 161.657 32.0853C162.648 33.1227 163.409 34.4828 163.939 36.1657C164.47 37.8256 164.735 39.8197 164.735 42.1481V61.7203C164.735 64.6996 162.319 67.1147 159.34 67.1147C156.361 67.1147 153.946 64.6996 153.946 61.7203V43.4621C153.946 41.8023 153.738 40.5458 153.323 39.6929C152.931 38.8169 152.355 38.2175 151.594 37.8947C150.833 37.572 149.923 37.4106 148.862 37.4106C147.71 37.4106 146.684 37.6642 145.785 38.1714C144.909 38.6555 144.171 39.3356 143.572 40.2116C142.972 41.0876 142.523 42.1135 142.223 43.2892C142.039 44.0726 141.916 44.8969 141.854 45.7622ZM163.701 44.963C163.616 45.8508 162.943 46.595 162.054 46.6669C161.058 46.7474 160.199 45.9597 160.26 44.9618C160.372 43.1243 160.653 41.3911 161.104 39.762C161.703 37.595 162.602 35.7162 163.801 34.1255C165 32.5118 166.487 31.2554 168.262 30.3563C170.06 29.4572 172.146 29.0077 174.521 29.0077C176.273 29.0077 177.863 29.2613 179.293 29.7684C180.745 30.2756 181.99 31.094 183.027 32.2236C184.088 33.3532 184.906 34.8402 185.483 36.6844C186.059 38.5056 186.347 40.7418 186.347 43.3929V61.6857C186.347 64.6841 183.916 67.1147 180.918 67.1147C177.92 67.1147 175.489 64.6841 175.489 61.6857V43.3929C175.489 41.7561 175.281 40.5113 174.867 39.6583C174.475 38.8053 173.898 38.2175 173.138 37.8947C172.4 37.572 171.512 37.4106 170.475 37.4106C169.322 37.4106 168.319 37.6527 167.466 38.1368C166.613 38.5978 165.899 39.2433 165.322 40.0733C164.746 40.8801 164.32 41.8368 164.043 42.9434C163.882 43.5855 163.769 44.2587 163.701 44.963Z" fill="#43CD66"/>
</svg>
