<svg width="344" height="92" viewBox="0 0 344 92" fill="none" xmlns="http://www.w3.org/2000/svg">
<path d="M0 45.8196C0 16.4312 27.5935 -5.14916 56.116 1.93233L184.292 33.7556C198.206 37.2102 212.707 37.5844 226.78 34.8521L305.429 19.5829C325.425 15.7009 344 31.0164 344 51.3855C344 70.7793 327.075 85.8278 307.815 83.5595L217.307 72.9005C209.408 71.9702 201.425 71.9953 193.532 72.9751L50.7905 90.6949C23.8134 94.0438 0 73.0038 0 45.8196Z" fill="white"/>
<path d="M110 20C110 15.5817 113.582 12 118 12C122.418 12 126 15.5817 126 20V26H110V20Z" fill="white"/>
<path d="M161 40C161 33.3726 166.373 28 173 28H175C181.627 28 187 33.3726 187 40V42H161V40Z" fill="white"/>
<path d="M286 77.5C286 81.6421 282.642 85 278.5 85C274.358 85 271 81.6421 271 77.5V71H286V77.5Z" fill="white"/>
<path d="M255 77.5C255 81.6421 251.642 85 247.5 85C243.358 85 240 81.6421 240 77.5V71H255V77.5Z" fill="white"/>
<path d="M229.462 64.2398V52.0132C229.462 51.1524 229.329 50.4146 229.064 49.7997C228.799 49.1849 228.384 48.7018 227.818 48.3505C227.253 47.9991 226.519 47.8235 225.618 47.8235C224.858 47.8235 224.195 47.9552 223.63 48.2187C223.082 48.4822 222.658 48.8599 222.357 49.3518V49.3518C221.838 50.256 221.088 51.17 220.045 51.17H217.389C215.331 51.17 213.578 49.4069 214.537 47.5863V47.5863C215.121 46.4796 215.951 45.5046 217.029 44.6614C218.125 43.8182 219.433 43.1682 220.952 42.7115C222.472 42.2372 224.178 42 226.069 42C228.313 42 230.31 42.3777 232.059 43.1331C233.827 43.8709 235.223 44.9864 236.248 46.4796C237.273 47.9552 237.785 49.8173 237.785 52.0659V64.0026C237.785 65.7242 237.882 67.0769 238.077 68.0606C238.281 68.9914 238.567 69.808 238.936 70.5105C238.963 70.563 238.978 70.6213 238.978 70.6806V70.6806C238.978 70.8781 238.818 71.0382 238.62 71.0382H233.818C231.871 71.0382 230.062 69.904 229.753 67.9816V67.9816C229.559 66.7519 229.462 65.5046 229.462 64.2398ZM228.256 53.6469C229.497 53.6469 230.507 54.6454 230.522 55.8865V55.8865C230.536 57.1484 229.518 58.1792 228.256 58.1792H226.44C225.521 58.1792 224.725 58.2934 224.054 58.5217C223.4 58.7501 222.87 59.0663 222.463 59.4704C222.057 59.8568 221.757 60.3136 221.562 60.8406C221.385 61.35 221.297 61.9122 221.297 62.527C221.297 63.1067 221.438 63.6337 221.721 64.108C222.004 64.5648 222.393 64.9249 222.888 65.1884C223.382 65.4519 223.957 65.5837 224.611 65.5837C225.689 65.5837 226.608 65.3729 227.367 64.9513C228.145 64.5296 228.746 64.0202 229.17 63.4229V63.4229C229.46 63.0029 230.481 62.8732 230.737 63.3144L231.552 64.7188C231.704 64.9804 231.722 65.3 231.589 65.572C231.314 66.139 230.993 66.7226 230.628 67.3228C230.168 68.0606 229.585 68.7545 228.878 69.4045C228.172 70.0369 227.314 70.5551 226.307 70.9592C225.317 71.3632 224.125 71.5652 222.729 71.5652C220.926 71.5652 219.291 71.2051 217.824 70.4848C216.358 69.747 215.183 68.7369 214.299 67.4545C213.433 66.1722 213 64.6965 213 63.0277C213 61.5345 213.274 60.2082 213.822 59.0487C214.37 57.8893 215.191 56.9056 216.287 56.0975C217.4 55.2894 218.796 54.6834 220.475 54.2793C222.154 53.8577 224.116 53.6469 226.36 53.6469H228.256Z" fill="#27AE60"/>
<path d="M251.516 48.0079V77.8647C251.516 80.1486 249.665 82 247.381 82V82C245.097 82 243.246 80.1486 243.246 77.8647V46.5793C243.246 44.3413 245.06 42.527 247.298 42.527V42.527C249.378 42.527 251.12 44.101 251.33 46.1699L251.516 48.0079ZM269.41 56.4664V57.0198C269.41 59.0927 269.171 61.0162 268.694 62.7905C268.217 64.5472 267.501 66.0843 266.547 67.4018C265.61 68.7194 264.452 69.747 263.074 70.4848C261.696 71.2051 260.096 71.5652 258.276 71.5652C256.544 71.5652 255.042 71.2051 253.77 70.4848C252.515 69.747 251.455 68.7282 250.589 67.4282C249.74 66.1107 249.051 64.6087 248.521 62.9223C248.066 61.4098 247.702 59.8075 247.428 58.1151C247.358 57.6846 247.328 57.2488 247.328 56.8127V56.3874C247.611 54.332 248.017 52.426 248.548 50.6693C249.078 48.9126 249.767 47.3931 250.615 46.1107C251.463 44.8107 252.515 43.8006 253.77 43.0804C255.024 42.3601 256.518 42 258.25 42C260.052 42 261.651 42.3426 263.048 43.0277C264.444 43.7128 265.61 44.6965 266.547 45.9789C267.501 47.2437 268.217 48.7633 268.694 50.5375C269.171 52.3118 269.41 54.2881 269.41 56.4664ZM261.112 57.0198V56.4664C261.112 55.307 261.024 54.2442 260.847 53.278C260.671 52.2942 260.388 51.4422 259.999 50.722C259.61 49.9842 259.098 49.4133 258.462 49.0092C257.825 48.6052 257.048 48.4032 256.129 48.4032C255.139 48.4032 254.3 48.5613 253.611 48.8775C252.921 49.1937 252.365 49.6592 251.941 50.274C251.516 50.8713 251.207 51.6091 251.013 52.4875C250.836 53.3658 250.739 54.3671 250.721 55.4914V58.39C250.739 59.7075 250.924 60.8845 251.278 61.9209C251.649 62.9398 252.223 63.7391 253.001 64.3188C253.796 64.881 254.856 65.1621 256.182 65.1621C257.119 65.1621 257.896 64.96 258.515 64.556C259.151 64.1344 259.654 63.5459 260.026 62.7905C260.414 62.0351 260.688 61.1656 260.847 60.1818C261.024 59.1981 261.112 58.144 261.112 57.0198Z" fill="#27AE60"/>
<path d="M282.107 48.0079V77.8647C282.107 80.1486 280.256 82 277.972 82V82C275.688 82 273.836 80.1486 273.836 77.8647V46.5793C273.836 44.3413 275.651 42.527 277.889 42.527V42.527C279.968 42.527 281.71 44.101 281.92 46.1699L282.107 48.0079ZM300 56.4664V57.0198C300 59.0927 299.761 61.0162 299.284 62.7905C298.807 64.5472 298.091 66.0843 297.137 67.4018C296.2 68.7194 295.043 69.747 293.665 70.4848C292.286 71.2051 290.687 71.5652 288.867 71.5652C287.135 71.5652 285.633 71.2051 284.36 70.4848C283.105 69.747 282.045 68.7282 281.179 67.4282C280.331 66.1107 279.642 64.6087 279.112 62.9223C278.657 61.4098 278.292 59.8075 278.018 58.1151C277.949 57.6846 277.919 57.2488 277.919 56.8127V56.3874C278.201 54.332 278.608 52.426 279.138 50.6693C279.668 48.9126 280.357 47.3931 281.206 46.1107C282.054 44.8107 283.105 43.8006 284.36 43.0804C285.615 42.3601 287.108 42 288.84 42C290.643 42 292.242 42.3426 293.638 43.0277C295.034 43.7128 296.2 44.6965 297.137 45.9789C298.091 47.2437 298.807 48.7633 299.284 50.5375C299.761 52.3118 300 54.2881 300 56.4664ZM291.703 57.0198V56.4664C291.703 55.307 291.615 54.2442 291.438 53.278C291.261 52.2942 290.978 51.4422 290.59 50.722C290.201 49.9842 289.688 49.4133 289.052 49.0092C288.416 48.6052 287.638 48.4032 286.719 48.4032C285.73 48.4032 284.89 48.5613 284.201 48.8775C283.512 49.1937 282.955 49.6592 282.531 50.274C282.107 50.8713 281.798 51.6091 281.603 52.4875C281.427 53.3658 281.329 54.3671 281.312 55.4914V58.39C281.329 59.7075 281.515 60.8845 281.868 61.9209C282.239 62.9398 282.814 63.7391 283.591 64.3188C284.387 64.881 285.447 65.1621 286.772 65.1621C287.709 65.1621 288.487 64.96 289.105 64.556C289.741 64.1344 290.245 63.5459 290.616 62.7905C291.005 62.0351 291.279 61.1656 291.438 60.1818C291.615 59.1981 291.703 58.144 291.703 57.0198Z" fill="#27AE60"/>
<path d="M193.162 59.9969C193.162 58.4293 193.715 57.1152 194.822 56.0548C195.952 54.9943 197.415 54.4641 199.214 54.4641C201.035 54.4641 202.487 54.9943 203.571 56.0548C204.677 57.1152 205.231 58.4293 205.231 59.9969C205.231 61.5415 204.677 62.844 203.571 63.9044C202.487 64.9649 201.035 65.4951 199.214 65.4951C197.415 65.4951 195.952 64.9649 194.822 63.9044C193.715 62.844 193.162 61.5415 193.162 59.9969Z" fill="#43CD66"/>
<path d="M54.1509 57.1155C55.5308 54.6228 57.6204 52.2398 60.4696 52.2398H60.684C63.8989 52.2398 66.5606 55.0032 65.4492 58.0198C65.0098 59.2126 64.4481 60.3404 63.7641 61.4034C62.0812 64.0315 59.7413 66.0948 56.7444 67.5932C53.7474 69.0686 50.1857 69.8063 46.0592 69.8063C42.7626 69.8063 39.8117 69.2415 37.2067 68.1119C34.6017 66.9823 32.3886 65.3686 30.5674 63.2707C28.7692 61.1498 27.386 58.6025 26.4178 55.6286C25.4726 52.6317 25 49.2544 25 45.4967V42.4191C25 38.6614 25.4956 35.2841 26.4869 32.2871C27.4782 29.2902 28.896 26.7313 30.7403 24.6104C32.5845 22.4895 34.7976 20.8642 37.3796 19.7346C39.9616 18.605 42.8432 18.0402 46.0246 18.0402C50.3125 18.0402 53.9319 18.8125 56.8827 20.3571C59.8335 21.9016 62.1158 24.0225 63.7295 26.7198C64.3773 27.7873 64.9222 28.9143 65.3642 30.101C66.4902 33.1243 63.8824 35.9526 60.6562 35.9526H60.5315C57.6762 35.9526 55.5651 33.579 54.3238 31.0077V31.0077C53.6783 29.6475 52.687 28.6217 51.3499 27.9301C50.0128 27.2385 48.2377 26.8927 46.0246 26.8927C44.4109 26.8927 42.9931 27.1924 41.7713 27.7918C40.5725 28.3911 39.5697 29.3248 38.7628 30.5927C37.979 31.8607 37.3911 33.4744 36.9992 35.4339C36.6073 37.3704 36.4114 39.6757 36.4114 42.3499V45.4967C36.4114 48.1478 36.5843 50.4416 36.9301 52.3781C37.2759 54.3145 37.8291 55.9167 38.5899 57.1847C39.3737 58.4526 40.3765 59.3978 41.5984 60.0202C42.8202 60.6427 44.3071 60.9539 46.0592 60.9539C48.0648 60.9539 49.7362 60.6427 51.0733 60.0202C52.4103 59.3747 53.4362 58.4065 54.1509 57.1155V57.1155Z" fill="#43CD66"/>
<path d="M70.7492 50.7874V50.0612C70.7492 47.3179 71.1411 44.7935 71.9249 42.4882C72.7088 40.1598 73.8614 38.1427 75.3829 36.4367C76.9045 34.7308 78.7718 33.4052 80.9849 32.46C83.198 31.4918 85.7339 31.0077 88.5925 31.0077C91.4972 31.0077 94.0561 31.4918 96.2692 32.46C98.5054 33.4052 100.384 34.7308 101.906 36.4367C103.427 38.1427 104.58 40.1598 105.364 42.4882C106.148 44.7935 106.539 47.3179 106.539 50.0612V50.7874C106.539 53.5077 106.148 56.032 105.364 58.3604C104.58 60.6657 103.427 62.6829 101.906 64.4119C100.384 66.1178 98.5169 67.4434 96.3038 68.3886C94.0907 69.3338 91.5433 69.8063 88.6616 69.8063C85.803 69.8063 83.2556 69.3338 81.0195 68.3886C78.7833 67.4434 76.9045 66.1178 75.3829 64.4119C73.8614 62.6829 72.7088 60.6657 71.9249 58.3604C71.1411 56.032 70.7492 53.5077 70.7492 50.7874ZM81.5727 50.0612V50.7874C81.5727 52.2628 81.688 53.646 81.9185 54.937C82.1721 56.228 82.5756 57.3576 83.1288 58.3258C83.6821 59.2941 84.4083 60.0548 85.3074 60.6081C86.2295 61.1383 87.3476 61.4034 88.6616 61.4034C89.9757 61.4034 91.0822 61.1383 91.9813 60.6081C92.8804 60.0548 93.6066 59.2941 94.1598 58.3258C94.7131 57.3576 95.105 56.228 95.3355 54.937C95.5891 53.646 95.7159 52.2628 95.7159 50.7874V50.0612C95.7159 48.6089 95.5891 47.2487 95.3355 45.9808C95.105 44.6898 94.7131 43.5487 94.1598 42.5574C93.6066 41.5661 92.8688 40.7938 91.9467 40.2405C91.0476 39.6872 89.9296 39.4106 88.5925 39.4106C87.3015 39.4106 86.2065 39.6872 85.3074 40.2405C84.4083 40.7938 83.6821 41.5661 83.1288 42.5574C82.5756 43.5487 82.1721 44.6898 81.9185 45.9808C81.688 47.2487 81.5727 48.6089 81.5727 50.0612Z" fill="#43CD66"/>
<path d="M118.176 16C121.164 16 123.587 18.4229 123.587 21.4118V63.703C123.587 66.6918 121.164 69.1148 118.176 69.1148V69.1148C115.187 69.1148 112.764 66.6918 112.764 63.703V21.4118C112.764 18.4229 115.187 16 118.176 16V16Z" fill="#43CD66"/>
<path d="M142.191 39.5489V63.7203C142.191 66.6996 139.776 69.1148 136.797 69.1148V69.1148C133.818 69.1148 131.402 66.6996 131.402 63.7203V36.9769C131.402 34.0621 133.765 31.6993 136.68 31.6993V31.6993C139.424 31.6993 141.71 33.8022 141.939 36.5367L142.191 39.5489ZM140.854 47.7622C140.802 48.5013 140.217 49.1079 139.477 49.1267V49.1267C138.709 49.1461 138.073 48.5287 138.107 47.7615C138.199 45.6722 138.5 43.73 139.01 41.9349C139.655 39.7218 140.589 37.7969 141.811 36.1601C143.033 34.5233 144.543 33.2554 146.341 32.3563C148.162 31.4572 150.26 31.0077 152.634 31.0077C154.294 31.0077 155.804 31.2613 157.164 31.7684C158.525 32.2526 159.689 33.0248 160.657 34.0853C161.648 35.1227 162.409 36.4828 162.939 38.1657C163.47 39.8256 163.735 41.8197 163.735 44.1481V63.7203C163.735 66.6996 161.319 69.1148 158.34 69.1148V69.1148C155.361 69.1148 152.946 66.6996 152.946 63.7203V45.4621C152.946 43.8023 152.738 42.5458 152.323 41.6929C151.931 40.8169 151.355 40.2175 150.594 39.8947C149.833 39.572 148.923 39.4106 147.862 39.4106C146.71 39.4106 145.684 39.6642 144.785 40.1714C143.909 40.6555 143.171 41.3356 142.572 42.2116C141.972 43.0876 141.523 44.1135 141.223 45.2892C141.039 46.0726 140.916 46.8969 140.854 47.7622ZM162.701 46.963C162.616 47.8508 161.943 48.595 161.054 48.6669V48.6669C160.058 48.7474 159.199 47.9597 159.26 46.9618C159.372 45.1243 159.653 43.3911 160.104 41.762C160.703 39.595 161.602 37.7162 162.801 36.1255C164 34.5118 165.487 33.2554 167.262 32.3563C169.06 31.4572 171.146 31.0077 173.521 31.0077C175.273 31.0077 176.863 31.2613 178.293 31.7684C179.745 32.2756 180.99 33.094 182.027 34.2236C183.088 35.3532 183.906 36.8402 184.483 38.6844C185.059 40.5056 185.347 42.7418 185.347 45.3929V63.6857C185.347 66.6841 182.916 69.1148 179.918 69.1148V69.1148C176.92 69.1148 174.489 66.6841 174.489 63.6857V45.3929C174.489 43.7561 174.281 42.5113 173.867 41.6583C173.475 40.8053 172.898 40.2175 172.138 39.8947C171.4 39.572 170.512 39.4106 169.475 39.4106C168.322 39.4106 167.319 39.6527 166.466 40.1368C165.613 40.5978 164.899 41.2433 164.322 42.0733C163.746 42.8801 163.32 43.8368 163.043 44.9434C162.882 45.5855 162.769 46.2587 162.701 46.963Z" fill="#43CD66"/>
<path d="M43 16C43 13.7909 44.7909 12 47 12V12C49.2091 12 51 13.7909 51 16V19H43V16Z" fill="#43CD66"/>
<path d="M50 72C50 74.2091 48.2091 76 46 76V76C43.7909 76 42 74.2091 42 72L42 69L50 69L50 72Z" fill="#43CD66"/>
</svg>
