<svg width="326" height="85" viewBox="0 0 326 85" fill="none" xmlns="http://www.w3.org/2000/svg">
<rect width="326" height="85" rx="42.5" fill="white"/>
<path d="M210.646 55.4414V41.8477C210.646 40.8906 210.5 40.0703 210.207 39.3867C209.914 38.7031 209.455 38.166 208.83 37.7754C208.205 37.3848 207.395 37.1895 206.398 37.1895C205.559 37.1895 204.826 37.3359 204.201 37.6289C203.596 37.9219 203.127 38.3418 202.795 38.8887V38.8887C202.22 39.895 201.387 40.9102 200.227 40.9102H197.326C195.04 40.9102 193.091 38.9517 194.152 36.9258V36.9258C194.797 35.6953 195.715 34.6113 196.906 33.6738C198.117 32.7363 199.562 32.0137 201.242 31.5059C202.922 30.9785 204.807 30.7148 206.896 30.7148C209.377 30.7148 211.584 31.1348 213.518 31.9746C215.471 32.7949 217.014 34.0352 218.146 35.6953C219.279 37.3359 219.846 39.4062 219.846 41.9062V55.1777C219.846 57.0918 219.953 58.5957 220.168 59.6895C220.394 60.7244 220.71 61.6324 221.117 62.4135C221.148 62.4718 221.164 62.5363 221.164 62.602V62.602C221.164 62.8218 220.986 63 220.766 63H215.48C213.317 63 211.309 61.7374 210.969 59.6016V59.6016C210.754 58.2344 210.646 56.8477 210.646 55.4414ZM209.299 43.6641C210.679 43.6641 211.802 44.7743 211.818 46.1543V46.1543C211.834 47.5572 210.702 48.7031 209.299 48.7031H207.307C206.291 48.7031 205.412 48.8301 204.67 49.084C203.947 49.3379 203.361 49.6895 202.912 50.1387C202.463 50.5684 202.131 51.0762 201.916 51.6621C201.721 52.2285 201.623 52.8535 201.623 53.5371C201.623 54.1816 201.779 54.7676 202.092 55.2949C202.404 55.8027 202.834 56.2031 203.381 56.4961C203.928 56.7891 204.562 56.9355 205.285 56.9355C206.477 56.9355 207.492 56.7012 208.332 56.2324C209.191 55.7637 209.855 55.1973 210.324 54.5332V54.5332C210.644 54.0675 211.775 53.9247 212.057 54.4137L212.96 55.9784C213.126 56.2667 213.145 56.6181 213 56.9177C212.695 57.5496 212.34 58.2001 211.936 58.8691C211.428 59.6895 210.783 60.4609 210.002 61.1836C209.221 61.8867 208.273 62.4629 207.16 62.9121C206.066 63.3613 204.748 63.5859 203.205 63.5859C201.213 63.5859 199.406 63.1855 197.785 62.3848C196.164 61.5645 194.865 60.4414 193.889 59.0156C192.932 57.5898 192.453 55.9492 192.453 54.0938C192.453 52.4336 192.756 50.959 193.361 49.6699C193.967 48.3809 194.875 47.2871 196.086 46.3887C197.316 45.4902 198.859 44.8164 200.715 44.3672C202.57 43.8984 204.738 43.6641 207.219 43.6641H209.299Z" fill="#27AE60"/>
<path d="M235.021 37.3945V70.6172C235.021 73.1413 232.975 75.1875 230.451 75.1875V75.1875C227.927 75.1875 225.881 73.1413 225.881 70.6172V35.7781C225.881 33.3054 227.885 31.3008 230.358 31.3008V31.3008C232.657 31.3008 234.582 33.0414 234.813 35.3284L235.021 37.3945ZM254.797 46.7988V47.4141C254.797 49.7188 254.533 51.8574 254.006 53.8301C253.479 55.7832 252.688 57.4922 251.633 58.957C250.598 60.4219 249.318 61.5645 247.795 62.3848C246.271 63.1855 244.504 63.5859 242.492 63.5859C240.578 63.5859 238.918 63.1855 237.512 62.3848C236.125 61.5645 234.953 60.4316 233.996 58.9863C233.059 57.5215 232.297 55.8516 231.711 53.9766C231.182 52.2087 230.764 50.3303 230.457 48.3414C230.413 48.0558 230.393 47.767 230.393 47.478V46.7109C230.705 44.4258 231.154 42.3066 231.74 40.3535C232.326 38.4004 233.088 36.7109 234.025 35.2852C234.963 33.8398 236.125 32.7168 237.512 31.916C238.898 31.1152 240.549 30.7148 242.463 30.7148C244.455 30.7148 246.223 31.0957 247.766 31.8574C249.309 32.6191 250.598 33.7129 251.633 35.1387C252.688 36.5449 253.479 38.2344 254.006 40.207C254.533 42.1797 254.797 44.377 254.797 46.7988ZM245.627 47.4141V46.7988C245.627 45.5098 245.529 44.3281 245.334 43.2539C245.139 42.1602 244.826 41.2129 244.396 40.4121C243.967 39.5918 243.4 38.957 242.697 38.5078C241.994 38.0586 241.135 37.834 240.119 37.834C239.025 37.834 238.098 38.0098 237.336 38.3613C236.574 38.7129 235.959 39.2305 235.49 39.9141C235.021 40.5781 234.68 41.3984 234.465 42.375C234.27 43.3516 234.162 44.4648 234.143 45.7148V48.9375C234.162 50.4023 234.367 51.7109 234.758 52.8633C235.168 53.9961 235.803 54.8848 236.662 55.5293C237.541 56.1543 238.713 56.4668 240.178 56.4668C241.213 56.4668 242.072 56.2422 242.756 55.793C243.459 55.3242 244.016 54.6699 244.426 53.8301C244.855 52.9902 245.158 52.0234 245.334 50.9297C245.529 49.8359 245.627 48.6641 245.627 47.4141Z" fill="#27AE60"/>
<path d="M268.83 37.3945V70.6172C268.83 73.1413 266.784 75.1875 264.26 75.1875V75.1875C261.736 75.1875 259.689 73.1413 259.689 70.6172V35.7781C259.689 33.3054 261.694 31.3008 264.167 31.3008V31.3008C266.465 31.3008 268.391 33.0414 268.621 35.3284L268.83 37.3945ZM288.605 46.7988V47.4141C288.605 49.7188 288.342 51.8574 287.814 53.8301C287.287 55.7832 286.496 57.4922 285.441 58.957C284.406 60.4219 283.127 61.5645 281.604 62.3848C280.08 63.1855 278.312 63.5859 276.301 63.5859C274.387 63.5859 272.727 63.1855 271.32 62.3848C269.934 61.5645 268.762 60.4316 267.805 58.9863C266.867 57.5215 266.105 55.8516 265.52 53.9766C264.991 52.2087 264.573 50.3303 264.266 48.3414C264.221 48.0558 264.201 47.767 264.201 47.478V46.7109C264.514 44.4258 264.963 42.3066 265.549 40.3535C266.135 38.4004 266.896 36.7109 267.834 35.2852C268.771 33.8398 269.934 32.7168 271.32 31.916C272.707 31.1152 274.357 30.7148 276.271 30.7148C278.264 30.7148 280.031 31.0957 281.574 31.8574C283.117 32.6191 284.406 33.7129 285.441 35.1387C286.496 36.5449 287.287 38.2344 287.814 40.207C288.342 42.1797 288.605 44.377 288.605 46.7988ZM279.436 47.4141V46.7988C279.436 45.5098 279.338 44.3281 279.143 43.2539C278.947 42.1602 278.635 41.2129 278.205 40.4121C277.775 39.5918 277.209 38.957 276.506 38.5078C275.803 38.0586 274.943 37.834 273.928 37.834C272.834 37.834 271.906 38.0098 271.145 38.3613C270.383 38.7129 269.768 39.2305 269.299 39.9141C268.83 40.5781 268.488 41.3984 268.273 42.375C268.078 43.3516 267.971 44.4648 267.951 45.7148V48.9375C267.971 50.4023 268.176 51.7109 268.566 52.8633C268.977 53.9961 269.611 54.8848 270.471 55.5293C271.35 56.1543 272.521 56.4668 273.986 56.4668C275.021 56.4668 275.881 56.2422 276.564 55.793C277.268 55.3242 277.824 54.6699 278.234 53.8301C278.664 52.9902 278.967 52.0234 279.143 50.9297C279.338 49.8359 279.436 48.6641 279.436 47.4141Z" fill="#27AE60"/>
<path d="M178 57.0157C178 55.5946 178.458 54.4033 179.375 53.442C180.311 52.4807 181.524 52 183.014 52C184.523 52 185.727 52.4807 186.625 53.442C187.542 54.4033 188 55.5946 188 57.0157C188 58.4159 187.542 59.5967 186.625 60.558C185.727 61.5193 184.523 62 183.014 62C181.524 62 180.311 61.5193 179.375 60.558C178.458 59.5967 178 58.4159 178 57.0157Z" fill="#27AE60"/>
<path d="M59.9824 52.834C61.1515 50.7221 62.9219 48.7031 65.3358 48.7031H65.5175C68.2412 48.7031 70.4962 51.0444 69.5546 53.6001C69.1824 54.6106 68.7065 55.5662 68.127 56.4668C66.7012 58.6934 64.7188 60.4414 62.1797 61.7109C59.6406 62.9609 56.623 63.5859 53.127 63.5859C50.334 63.5859 47.834 63.1074 45.627 62.1504C43.4199 61.1934 41.5449 59.8262 40.002 58.0488C38.4785 56.252 37.3066 54.0938 36.4863 51.5742C35.6855 49.0352 35.2852 46.1738 35.2852 42.9902V40.3828C35.2852 37.1992 35.7051 34.3379 36.5449 31.7988C37.3848 29.2598 38.5859 27.0918 40.1484 25.2949C41.7109 23.498 43.5859 22.1211 45.7734 21.1641C47.9609 20.207 50.4023 19.7285 53.0977 19.7285C56.7305 19.7285 59.7969 20.3828 62.2969 21.6914C64.7969 23 66.7305 24.7969 68.0977 27.082C68.6465 27.9864 69.1081 28.9413 69.4826 29.9467C70.4366 32.5081 68.2272 34.9043 65.4939 34.9043H65.3883C62.9692 34.9043 61.1806 32.8933 60.1289 30.7148V30.7148C59.582 29.5625 58.7422 28.6934 57.6094 28.1074C56.4766 27.5215 54.9727 27.2285 53.0977 27.2285C51.7305 27.2285 50.5293 27.4824 49.4941 27.9902C48.4785 28.498 47.6289 29.2891 46.9453 30.3633C46.2812 31.4375 45.7832 32.8047 45.4512 34.4648C45.1191 36.1055 44.9531 38.0586 44.9531 40.3242V42.9902C44.9531 45.2363 45.0996 47.1797 45.3926 48.8203C45.6855 50.4609 46.1543 51.8184 46.7988 52.8926C47.4629 53.9668 48.3125 54.7676 49.3477 55.2949C50.3828 55.8223 51.6426 56.0859 53.127 56.0859C54.8262 56.0859 56.2422 55.8223 57.375 55.2949C58.5078 54.748 59.377 53.9277 59.9824 52.834V52.834Z" fill="#43CD66"/>
<path d="M74.0449 47.4727V46.8574C74.0449 44.5332 74.377 42.3945 75.041 40.4414C75.7051 38.4688 76.6816 36.7598 77.9707 35.3145C79.2598 33.8691 80.8418 32.7461 82.7168 31.9453C84.5918 31.125 86.7402 30.7148 89.1621 30.7148C91.623 30.7148 93.791 31.125 95.666 31.9453C97.5605 32.7461 99.1523 33.8691 100.441 35.3145C101.73 36.7598 102.707 38.4688 103.371 40.4414C104.035 42.3945 104.367 44.5332 104.367 46.8574V47.4727C104.367 49.7773 104.035 51.916 103.371 53.8887C102.707 55.8418 101.73 57.5508 100.441 59.0156C99.1523 60.4609 97.5703 61.584 95.6953 62.3848C93.8203 63.1855 91.6621 63.5859 89.2207 63.5859C86.7988 63.5859 84.6406 63.1855 82.7461 62.3848C80.8516 61.584 79.2598 60.4609 77.9707 59.0156C76.6816 57.5508 75.7051 55.8418 75.041 53.8887C74.377 51.916 74.0449 49.7773 74.0449 47.4727ZM83.2148 46.8574V47.4727C83.2148 48.7227 83.3125 49.8945 83.5078 50.9883C83.7227 52.082 84.0645 53.0391 84.5332 53.8594C85.002 54.6797 85.6172 55.3242 86.3789 55.793C87.1602 56.2422 88.1074 56.4668 89.2207 56.4668C90.334 56.4668 91.2715 56.2422 92.0332 55.793C92.7949 55.3242 93.4102 54.6797 93.8789 53.8594C94.3477 53.0391 94.6797 52.082 94.875 50.9883C95.0898 49.8945 95.1973 48.7227 95.1973 47.4727V46.8574C95.1973 45.627 95.0898 44.4746 94.875 43.4004C94.6797 42.3066 94.3477 41.3398 93.8789 40.5C93.4102 39.6602 92.7852 39.0059 92.0039 38.5371C91.2422 38.0684 90.2949 37.834 89.1621 37.834C88.0684 37.834 87.1406 38.0684 86.3789 38.5371C85.6172 39.0059 85.002 39.6602 84.5332 40.5C84.0645 41.3398 83.7227 42.3066 83.5078 43.4004C83.3125 44.4746 83.2148 45.627 83.2148 46.8574Z" fill="#43CD66"/>
<path d="M114.226 18C116.758 18 118.811 20.0528 118.811 22.585V58.415C118.811 60.9472 116.758 63 114.226 63V63C111.693 63 109.641 60.9472 109.641 58.415V22.585C109.641 20.0528 111.693 18 114.226 18V18Z" fill="#43CD66"/>
<path d="M134.572 37.9512V58.4297C134.572 60.9538 132.526 63 130.002 63V63C127.478 63 125.432 60.9538 125.432 58.4297V35.7721C125.432 33.3027 127.434 31.3008 129.903 31.3008V31.3008C132.228 31.3008 134.165 33.0824 134.359 35.3991L134.572 37.9512ZM133.44 44.9097C133.395 45.5358 132.9 46.0498 132.272 46.0657V46.0657C131.622 46.0821 131.083 45.559 131.112 44.9091C131.19 43.139 131.445 41.4935 131.877 39.9727C132.424 38.0977 133.215 36.4668 134.25 35.0801C135.285 33.6934 136.564 32.6191 138.088 31.8574C139.631 31.0957 141.408 30.7148 143.42 30.7148C144.826 30.7148 146.105 30.9297 147.258 31.3594C148.41 31.7695 149.396 32.4238 150.217 33.3223C151.057 34.2012 151.701 35.3535 152.15 36.7793C152.6 38.1855 152.824 39.875 152.824 41.8477V58.4297C152.824 60.9538 150.778 63 148.254 63V63C145.73 63 143.684 60.9538 143.684 58.4297V42.9609C143.684 41.5547 143.508 40.4902 143.156 39.7676C142.824 39.0254 142.336 38.5176 141.691 38.2441C141.047 37.9707 140.275 37.834 139.377 37.834C138.4 37.834 137.531 38.0488 136.77 38.4785C136.027 38.8887 135.402 39.4648 134.895 40.207C134.387 40.9492 134.006 41.8184 133.752 42.8145C133.596 43.4782 133.492 44.1766 133.44 44.9097ZM151.949 44.2325C151.877 44.9847 151.307 45.6152 150.553 45.6761V45.6761C149.709 45.7443 148.982 45.077 149.033 44.2315C149.128 42.6748 149.366 41.2063 149.748 39.8262C150.256 37.9902 151.018 36.3984 152.033 35.0508C153.049 33.6836 154.309 32.6191 155.812 31.8574C157.336 31.0957 159.104 30.7148 161.115 30.7148C162.6 30.7148 163.947 30.9297 165.158 31.3594C166.389 31.7891 167.443 32.4824 168.322 33.4395C169.221 34.3965 169.914 35.6562 170.402 37.2188C170.891 38.7617 171.135 40.6562 171.135 42.9023V58.4004C171.135 60.9407 169.075 63 166.535 63V63C163.995 63 161.936 60.9407 161.936 58.4004V42.9023C161.936 41.5156 161.76 40.4609 161.408 39.7383C161.076 39.0156 160.588 38.5176 159.943 38.2441C159.318 37.9707 158.566 37.834 157.688 37.834C156.711 37.834 155.861 38.0391 155.139 38.4492C154.416 38.8398 153.811 39.3867 153.322 40.0898C152.834 40.7734 152.473 41.584 152.238 42.5215C152.102 43.0655 152.006 43.6359 151.949 44.2325Z" fill="#43CD66"/>
</svg>
